<svg width="247" height="304" viewBox="0 0 247 304" fill="none" xmlns="http://www.w3.org/2000/svg">
<path fill-rule="evenodd" clip-rule="evenodd" d="M0 11.3501C0 9.26246 1.69236 7.57009 3.78 7.57009H183.22C185.308 7.57009 187 9.26246 187 11.3501V158.22C187 160.308 185.308 162 183.22 162H3.78C1.69236 162 0 160.308 0 158.22V11.3501Z" fill="white"/>
<path fill-rule="evenodd" clip-rule="evenodd" d="M0 11.3501C0 9.26246 1.69236 7.57009 3.78 7.57009H183.22C185.308 7.57009 187 9.26246 187 11.3501V40.8785H0V11.3501Z" fill="#FEAD40"/>
<path opacity="0.185009" fill-rule="evenodd" clip-rule="evenodd" d="M7.64685 59.4252C7.64685 55.4534 10.8666 52.2336 14.8384 52.2336H15.0538C19.0256 52.2336 22.2454 55.4534 22.2454 59.4252C22.2454 63.397 19.0256 66.6168 15.0538 66.6168H14.8384C10.8666 66.6168 7.64685 63.397 7.64685 59.4252Z" fill="#979797"/>
<path fill-rule="evenodd" clip-rule="evenodd" d="M29.6936 59.4252C29.6936 55.4534 32.9134 52.2336 36.8852 52.2336H37.1005C41.0723 52.2336 44.2921 55.4534 44.2921 59.4252C44.2921 63.397 41.0723 66.6168 37.1005 66.6168H36.8852C32.9134 66.6168 29.6936 63.397 29.6936 59.4252Z" fill="#FEAD40"/>
<path opacity="0.185009" fill-rule="evenodd" clip-rule="evenodd" d="M51.7404 59.4252C51.7404 55.4534 54.9601 52.2336 58.9319 52.2336H59.1473C63.1191 52.2336 66.3389 55.4534 66.3389 59.4252C66.3389 63.397 63.1191 66.6168 59.1473 66.6168H58.9319C54.9601 66.6168 51.7404 63.397 51.7404 59.4252Z" fill="#979797"/>
<path opacity="0.185009" fill-rule="evenodd" clip-rule="evenodd" d="M73.7871 59.4252C73.7871 55.4534 77.0069 52.2336 80.9787 52.2336H81.194C85.1658 52.2336 88.3856 55.4534 88.3856 59.4252C88.3856 63.397 85.1658 66.6168 81.194 66.6168H80.9787C77.0069 66.6168 73.7871 63.397 73.7871 59.4252Z" fill="#979797"/>
<path opacity="0.185009" fill-rule="evenodd" clip-rule="evenodd" d="M95.8337 59.4252C95.8337 55.4534 99.0535 52.2336 103.025 52.2336H103.241C107.212 52.2336 110.432 55.4534 110.432 59.4252C110.432 63.397 107.212 66.6168 103.241 66.6168H103.025C99.0535 66.6168 95.8337 63.397 95.8337 59.4252Z" fill="#979797"/>
<path opacity="0.185009" fill-rule="evenodd" clip-rule="evenodd" d="M117.88 59.4252C117.88 55.4534 121.1 52.2336 125.072 52.2336H125.287C129.259 52.2336 132.479 55.4534 132.479 59.4252C132.479 63.397 129.259 66.6168 125.287 66.6168H125.072C121.1 66.6168 117.88 63.397 117.88 59.4252Z" fill="#979797"/>
<path opacity="0.185009" fill-rule="evenodd" clip-rule="evenodd" d="M139.927 59.4252C139.927 55.4534 143.147 52.2336 147.119 52.2336H147.334C151.306 52.2336 154.526 55.4534 154.526 59.4252C154.526 63.397 151.306 66.6168 147.334 66.6168H147.119C143.147 66.6168 139.927 63.397 139.927 59.4252Z" fill="#979797"/>
<path opacity="0.185009" fill-rule="evenodd" clip-rule="evenodd" d="M161.974 59.4252C161.974 55.4534 165.194 52.2336 169.166 52.2336H169.381C173.353 52.2336 176.573 55.4534 176.573 59.4252C176.573 63.397 173.353 66.6168 169.381 66.6168H169.166C165.194 66.6168 161.974 63.397 161.974 59.4252Z" fill="#979797"/>
<path opacity="0.185009" fill-rule="evenodd" clip-rule="evenodd" d="M7.64685 86.4252C7.64685 82.4534 10.8666 79.2336 14.8384 79.2336H15.0538C19.0256 79.2336 22.2454 82.4534 22.2454 86.4252C22.2454 90.397 19.0256 93.6168 15.0538 93.6168H14.8384C10.8666 93.6168 7.64685 90.397 7.64685 86.4252Z" fill="#979797"/>
<path opacity="0.185009" fill-rule="evenodd" clip-rule="evenodd" d="M29.6936 86.4252C29.6936 82.4534 32.9134 79.2336 36.8852 79.2336H37.1005C41.0723 79.2336 44.2921 82.4534 44.2921 86.4252C44.2921 90.397 41.0723 93.6168 37.1005 93.6168H36.8852C32.9134 93.6168 29.6936 90.397 29.6936 86.4252Z" fill="#979797"/>
<path opacity="0.185009" fill-rule="evenodd" clip-rule="evenodd" d="M51.7404 86.4252C51.7404 82.4534 54.9601 79.2336 58.9319 79.2336H59.1473C63.1191 79.2336 66.3389 82.4534 66.3389 86.4252C66.3389 90.397 63.1191 93.6168 59.1473 93.6168H58.9319C54.9601 93.6168 51.7404 90.397 51.7404 86.4252Z" fill="#979797"/>
<path opacity="0.185009" fill-rule="evenodd" clip-rule="evenodd" d="M73.7871 86.4252C73.7871 82.4534 77.0069 79.2336 80.9787 79.2336H81.194C85.1658 79.2336 88.3856 82.4534 88.3856 86.4252C88.3856 90.397 85.1658 93.6168 81.194 93.6168H80.9787C77.0069 93.6168 73.7871 90.397 73.7871 86.4252Z" fill="#979797"/>
<path opacity="0.185009" fill-rule="evenodd" clip-rule="evenodd" d="M95.8337 86.4252C95.8337 82.4534 99.0535 79.2336 103.025 79.2336H103.241C107.212 79.2336 110.432 82.4534 110.432 86.4252C110.432 90.397 107.212 93.6168 103.241 93.6168H103.025C99.0535 93.6168 95.8337 90.397 95.8337 86.4252Z" fill="#979797"/>
<path fill-rule="evenodd" clip-rule="evenodd" d="M117.88 86.4252C117.88 82.4534 121.1 79.2336 125.072 79.2336H125.287C129.259 79.2336 132.479 82.4534 132.479 86.4252C132.479 90.397 129.259 93.6168 125.287 93.6168H125.072C121.1 93.6168 117.88 90.397 117.88 86.4252Z" fill="#FEAD40"/>
<path opacity="0.185009" fill-rule="evenodd" clip-rule="evenodd" d="M139.927 86.4252C139.927 82.4534 143.147 79.2336 147.119 79.2336H147.334C151.306 79.2336 154.526 82.4534 154.526 86.4252C154.526 90.397 151.306 93.6168 147.334 93.6168H147.119C143.147 93.6168 139.927 90.397 139.927 86.4252Z" fill="#979797"/>
<path opacity="0.185009" fill-rule="evenodd" clip-rule="evenodd" d="M161.974 86.4252C161.974 82.4534 165.194 79.2336 169.166 79.2336H169.381C173.353 79.2336 176.573 82.4534 176.573 86.4252C176.573 90.397 173.353 93.6168 169.381 93.6168H169.166C165.194 93.6168 161.974 90.397 161.974 86.4252Z" fill="#979797"/>
<path fill-rule="evenodd" clip-rule="evenodd" d="M7.64685 113.425C7.64685 109.453 10.8666 106.234 14.8384 106.234H15.0538C19.0256 106.234 22.2454 109.453 22.2454 113.425C22.2454 117.397 19.0256 120.617 15.0538 120.617H14.8384C10.8666 120.617 7.64685 117.397 7.64685 113.425Z" fill="#FEAD40"/>
<path opacity="0.185009" fill-rule="evenodd" clip-rule="evenodd" d="M29.6936 113.425C29.6936 109.453 32.9134 106.234 36.8852 106.234H37.1005C41.0723 106.234 44.2921 109.453 44.2921 113.425C44.2921 117.397 41.0723 120.617 37.1005 120.617H36.8852C32.9134 120.617 29.6936 117.397 29.6936 113.425Z" fill="#979797"/>
<path opacity="0.185009" fill-rule="evenodd" clip-rule="evenodd" d="M51.7404 113.425C51.7404 109.453 54.9601 106.234 58.9319 106.234H59.1473C63.1191 106.234 66.3389 109.453 66.3389 113.425C66.3389 117.397 63.1191 120.617 59.1473 120.617H58.9319C54.9601 120.617 51.7404 117.397 51.7404 113.425Z" fill="#979797"/>
<path fill-rule="evenodd" clip-rule="evenodd" d="M73.7871 113.425C73.7871 109.453 77.0069 106.234 80.9787 106.234H81.194C85.1658 106.234 88.3856 109.453 88.3856 113.425C88.3856 117.397 85.1658 120.617 81.194 120.617H80.9787C77.0069 120.617 73.7871 117.397 73.7871 113.425Z" fill="#FEAD40"/>
<path opacity="0.185009" fill-rule="evenodd" clip-rule="evenodd" d="M95.8337 113.425C95.8337 109.453 99.0535 106.234 103.025 106.234H103.241C107.212 106.234 110.432 109.453 110.432 113.425C110.432 117.397 107.212 120.617 103.241 120.617H103.025C99.0535 120.617 95.8337 117.397 95.8337 113.425Z" fill="#979797"/>
<path opacity="0.185009" fill-rule="evenodd" clip-rule="evenodd" d="M117.88 113.425C117.88 109.453 121.1 106.234 125.072 106.234H125.287C129.259 106.234 132.479 109.453 132.479 113.425C132.479 117.397 129.259 120.617 125.287 120.617H125.072C121.1 120.617 117.88 117.397 117.88 113.425Z" fill="#979797"/>
<path opacity="0.185009" fill-rule="evenodd" clip-rule="evenodd" d="M139.927 113.425C139.927 109.453 143.147 106.234 147.119 106.234H147.334C151.306 106.234 154.526 109.453 154.526 113.425C154.526 117.397 151.306 120.617 147.334 120.617H147.119C143.147 120.617 139.927 117.397 139.927 113.425Z" fill="#979797"/>
<path opacity="0.185009" fill-rule="evenodd" clip-rule="evenodd" d="M161.974 113.425C161.974 109.453 165.194 106.234 169.166 106.234H169.381C173.353 106.234 176.573 109.453 176.573 113.425C176.573 117.397 173.353 120.617 169.381 120.617H169.166C165.194 120.617 161.974 117.397 161.974 113.425Z" fill="#979797"/>
<path opacity="0.185009" fill-rule="evenodd" clip-rule="evenodd" d="M7.64685 140.425C7.64685 136.453 10.8666 133.234 14.8384 133.234H15.0538C19.0256 133.234 22.2454 136.453 22.2454 140.425C22.2454 144.397 19.0256 147.617 15.0538 147.617H14.8384C10.8666 147.617 7.64685 144.397 7.64685 140.425Z" fill="#979797"/>
<path opacity="0.185009" fill-rule="evenodd" clip-rule="evenodd" d="M29.6936 140.425C29.6936 136.453 32.9134 133.234 36.8852 133.234H37.1005C41.0723 133.234 44.2921 136.453 44.2921 140.425C44.2921 144.397 41.0723 147.617 37.1005 147.617H36.8852C32.9134 147.617 29.6936 144.397 29.6936 140.425Z" fill="#979797"/>
<path opacity="0.185009" fill-rule="evenodd" clip-rule="evenodd" d="M51.7404 140.425C51.7404 136.453 54.9601 133.234 58.9319 133.234H59.1473C63.1191 133.234 66.3389 136.453 66.3389 140.425C66.3389 144.397 63.1191 147.617 59.1473 147.617H58.9319C54.9601 147.617 51.7404 144.397 51.7404 140.425Z" fill="#979797"/>
<path fill-rule="evenodd" clip-rule="evenodd" d="M73.7871 140.425C73.7871 136.453 77.0069 133.234 80.9787 133.234H81.194C85.1658 133.234 88.3856 136.453 88.3856 140.425C88.3856 144.397 85.1658 147.617 81.194 147.617H80.9787C77.0069 147.617 73.7871 144.397 73.7871 140.425Z" fill="#FEAD40"/>
<path opacity="0.185009" fill-rule="evenodd" clip-rule="evenodd" d="M95.8337 140.425C95.8337 136.453 99.0535 133.234 103.025 133.234H103.241C107.212 133.234 110.432 136.453 110.432 140.425C110.432 144.397 107.212 147.617 103.241 147.617H103.025C99.0535 147.617 95.8337 144.397 95.8337 140.425Z" fill="#979797"/>
<path opacity="0.185009" fill-rule="evenodd" clip-rule="evenodd" d="M117.88 140.425C117.88 136.453 121.1 133.234 125.072 133.234H125.287C129.259 133.234 132.479 136.453 132.479 140.425C132.479 144.397 129.259 147.617 125.287 147.617H125.072C121.1 147.617 117.88 144.397 117.88 140.425Z" fill="#979797"/>
<path fill-rule="evenodd" clip-rule="evenodd" d="M139.927 140.425C139.927 136.453 143.147 133.234 147.119 133.234H147.334C151.306 133.234 154.526 136.453 154.526 140.425C154.526 144.397 151.306 147.617 147.334 147.617H147.119C143.147 147.617 139.927 144.397 139.927 140.425Z" fill="#FEAD40"/>
<path opacity="0.185009" fill-rule="evenodd" clip-rule="evenodd" d="M161.974 140.425C161.974 136.453 165.194 133.234 169.166 133.234H169.381C173.353 133.234 176.573 136.453 176.573 140.425C176.573 144.397 173.353 147.617 169.381 147.617H169.166C165.194 147.617 161.974 144.397 161.974 140.425Z" fill="#979797"/>
<path fill-rule="evenodd" clip-rule="evenodd" d="M37.5502 34.8224C42.9421 34.8224 47.3132 30.4164 47.3132 24.9813C47.3132 19.5462 42.9421 15.1402 37.5502 15.1402C32.1582 15.1402 27.7871 19.5462 27.7871 24.9813C27.7871 30.4164 32.1582 34.8224 37.5502 34.8224Z" fill="#FED640"/>
<path fill-rule="evenodd" clip-rule="evenodd" d="M37.5502 31.7944C41.2831 31.7944 44.3092 28.7441 44.3092 24.9813C44.3092 21.2185 41.2831 18.1682 37.5502 18.1682C33.8173 18.1682 30.7911 21.2185 30.7911 24.9813C30.7911 28.7441 33.8173 31.7944 37.5502 31.7944Z" fill="#F7F8FA"/>
<path d="M34.1782 4.51541C34.1782 2.64791 35.6921 1.134 37.5596 1.134C39.4271 1.134 40.941 2.64791 40.941 4.51541V23.4939C40.941 25.3614 39.4271 26.8753 37.5596 26.8753C35.6921 26.8753 34.1782 25.3614 34.1782 23.4939V4.51541Z" fill="#F7F8FA" stroke="#FEAD40" stroke-width="2.268"/>
<path fill-rule="evenodd" clip-rule="evenodd" d="M149.45 34.8224C154.842 34.8224 159.213 30.4164 159.213 24.9813C159.213 19.5462 154.842 15.1402 149.45 15.1402C144.058 15.1402 139.687 19.5462 139.687 24.9813C139.687 30.4164 144.058 34.8224 149.45 34.8224Z" fill="#FED640"/>
<path fill-rule="evenodd" clip-rule="evenodd" d="M149.45 31.7944C153.183 31.7944 156.209 28.7441 156.209 24.9813C156.209 21.2185 153.183 18.1682 149.45 18.1682C145.717 18.1682 142.691 21.2185 142.691 24.9813C142.691 28.7441 145.717 31.7944 149.45 31.7944Z" fill="#F7F8FA"/>
<path d="M146.078 4.51541C146.078 2.64791 147.592 1.134 149.459 1.134C151.327 1.134 152.841 2.64791 152.841 4.51541V23.4939C152.841 25.3614 151.327 26.8753 149.459 26.8753C147.592 26.8753 146.078 25.3614 146.078 23.4939V4.51541Z" fill="#F7F8FA" stroke="#FEAD40" stroke-width="2.268"/>
<path opacity="0.1" d="M164.83 303.692C209.839 303.692 246.327 298.145 246.327 291.302C246.327 284.459 209.839 278.912 164.83 278.912C119.82 278.912 83.3324 284.459 83.3324 291.302C83.3324 298.145 119.82 303.692 164.83 303.692Z" fill="#4090FE"/>
<path d="M191.135 236.248C191.135 237.871 191.316 239.182 191.537 239.182C191.758 239.182 191.939 237.867 191.939 236.248C191.939 234.63 191.714 235.39 191.49 235.39C191.266 235.39 191.135 234.613 191.135 236.248Z" fill="#FFD037"/>
<path d="M166.384 281.582C166.384 281.582 166.223 285.942 156.779 284.651C147.335 283.36 159.982 290.951 159.982 290.951L185.443 291.434C185.443 291.434 186.941 280.281 183.202 280.281C183.038 280.291 166.384 281.582 166.384 281.582Z" fill="#4A4347"/>
<path d="M166.384 281.582C166.384 281.582 166.223 285.942 156.779 284.651C147.335 283.36 159.982 290.951 159.982 290.951L185.443 291.434C185.443 291.434 186.941 280.281 183.202 280.281C183.038 280.291 166.384 281.582 166.384 281.582Z" fill="#141327"/>
<path d="M146.534 211.968C146.667 212.492 146.929 212.975 147.295 213.371C151.003 217.511 165.57 216.257 167.027 217.136C167.248 217.271 167.459 217.998 167.657 219.164C168.344 223.199 168.87 232.443 169.198 239.75C169.453 245.425 169.59 249.933 169.59 249.933L170.404 285.3L179.832 283.812L185.762 282.89L182.88 259.792C182.88 259.792 182.72 238.472 183.215 237.178C184.669 233.267 183.859 227.038 182.88 222.398C182.062 218.552 181.981 214.584 182.643 210.707C184.318 201.011 181.879 193.507 180.214 189.807C179.827 188.931 179.379 188.084 178.874 187.272C178.874 187.272 155.338 186.934 151.174 189.533C150.397 190.076 149.759 190.799 149.315 191.642C146.477 196.485 145.328 207.104 146.534 211.968Z" fill="#13325D"/>
<path d="M160.303 288.044C160.303 288.044 160.143 292.404 150.698 291.113C144.598 290.278 147.713 293.141 150.698 295.287C152.627 296.671 154.925 297.435 157.292 297.477L179.369 297.896C179.369 297.896 180.867 286.743 177.128 286.743C176.954 286.753 160.303 288.044 160.303 288.044Z" fill="#141327"/>
<path d="M193.286 158.02C193.286 158.02 194.723 158.128 196.971 158.192C199.464 158.263 202.958 158.276 206.583 158.02C213.468 157.536 211.867 152.69 211.867 152.69L209.146 133.631C209.146 133.631 202.261 117.641 200.342 122.325C198.422 127.01 203.863 134.439 203.863 134.439C203.863 134.439 206.265 147.039 203.863 148.813C202.342 149.938 199.843 149.229 198.168 148.556C197.615 148.333 197.075 148.077 196.553 147.789L193.286 158.02Z" fill="#E6B9B6"/>
<path d="M120.758 109.725L122.52 129.109C122.52 129.109 124.6 133.148 127.002 134.439C128.647 135.324 131.863 138.099 133.733 139.762C134.594 140.529 135.17 141.06 135.17 141.06L139.974 133.306C139.644 132.85 139.272 132.424 138.865 132.036C137.184 130.385 135.067 129.256 132.768 128.784C132.768 128.784 132.369 127.574 131.488 125.404C130.872 123.88 127.006 115.39 127.006 115.39C127.006 115.39 125.404 108.607 125.726 105.213C126.048 101.82 120.764 95.3613 119.964 96.1691C119.163 96.9769 118.516 106.494 120.758 109.725Z" fill="#E6B9B6"/>
<path d="M156.622 143C156.622 143 173.912 145.423 171.671 141.546C171.054 140.482 170.692 138.937 170.491 137.261C169.962 132.84 170.552 127.493 170.552 127.493L157.583 129.754C158.328 132.265 158.51 134.911 158.116 137.501C157.863 139.393 157.36 141.242 156.622 143H156.622Z" fill="#E6B9B6"/>
<path d="M162.625 134.036C167.223 134.036 170.95 130.276 170.95 125.638C170.95 120.999 167.223 117.239 162.625 117.239C158.027 117.239 154.3 120.999 154.3 125.638C154.3 130.276 158.027 134.036 162.625 134.036Z" fill="#E6B9B6"/>
<path opacity="0.1" d="M149.318 191.635C150.086 192.279 151 192.72 151.978 192.919C154.541 193.403 162.866 194.373 166.069 191.787C168.609 189.739 176.887 189.719 180.204 189.8C179.817 188.924 179.369 188.077 178.864 187.265C178.864 187.265 155.328 186.927 151.164 189.526C150.392 190.071 149.759 190.794 149.318 191.635Z" fill="black"/>
<path opacity="0.1" d="M133.733 139.762C134.594 140.529 135.17 141.06 135.17 141.06L139.974 133.306C139.644 132.85 139.272 132.424 138.865 132.036C136.527 132.488 134.497 137.585 133.733 139.762Z" fill="black"/>
<path opacity="0.1" d="M193.286 158.02C193.286 158.02 194.723 158.128 196.971 158.192C200.509 153.91 198.63 149.678 198.181 148.556C197.628 148.333 197.089 148.077 196.566 147.789L193.286 158.02Z" fill="black"/>
<path opacity="0.1" d="M156.622 143C156.622 143 173.912 145.423 171.671 141.546C171.054 140.482 170.692 138.937 170.491 137.261C169.082 136.678 167.589 136.326 166.069 136.216C163.101 135.469 159.925 136.629 158.116 137.501C157.863 139.393 157.36 141.242 156.622 143H156.622Z" fill="black"/>
<path d="M166.069 136.544C166.069 136.544 172.954 136.882 174.234 141.391C174.234 141.391 180.957 143.652 184.482 143.814C188.006 143.976 197.45 147.853 197.611 148.499C197.772 149.144 200.961 154.799 194.891 159.966C194.891 159.966 188.006 157.543 184.964 161.903C181.922 166.263 178.559 187.099 181.614 189.36C181.614 189.36 169.285 188.715 166.082 191.297C162.88 193.879 154.554 192.913 151.992 192.429C149.429 191.946 145.908 189.198 145.747 181.614C145.586 174.03 148.31 157.709 144.306 155.772C140.303 153.835 133.9 140.901 133.9 140.901C133.9 140.901 136.463 132.502 139.505 132.178C139.505 132.178 147.03 136.862 150.226 137.183C152.405 137.444 154.551 137.931 156.632 138.636C156.632 138.636 161.587 135.405 166.069 136.544Z" fill="#4090FE"/>
<path opacity="0.1" d="M171.513 250.572C171.513 250.572 170.15 244.488 169.198 239.757C169.453 245.431 169.59 249.94 169.59 249.94L170.404 285.3L179.832 283.812L171.513 250.572Z" fill="black"/>
<path d="M147.496 209.21C147.496 209.21 144.293 221.648 147.496 226.008C150.698 230.368 154.38 248.135 154.38 248.135C154.38 248.135 156.782 260.573 158.545 262.668C160.307 264.764 159.506 289.48 159.506 289.48L180.321 288.348L170.873 250.552C170.873 250.552 167.831 236.985 167.671 234.562C167.51 232.139 166.709 211.14 166.709 211.14L147.496 209.21Z" fill="#13325D"/>
<path opacity="0.1" d="M157.583 121.808C154.385 120.604 151.834 118.103 150.548 114.913C151.432 114.576 152.36 115.4 153.301 115.336C154.441 115.258 155.087 113.984 156.062 113.403C157.332 112.625 159 113.065 160.283 113.829C161.566 114.592 162.716 115.616 164.133 116.069C165.345 116.458 166.649 116.38 167.922 116.455C169.537 116.546 172.867 116.837 174.076 118.08C174.746 118.756 174.445 119.432 173.835 120C173.999 120.95 173.667 121.825 173.775 122.947C173.932 123.918 173.801 124.914 173.399 125.81C172.94 127.071 172.294 128.061 171.667 129.247C171.252 130.038 171.49 131.076 170.997 131.823C170.734 132.172 170.388 132.449 169.992 132.63C167.63 133.904 164.881 134.238 162.287 133.567C161.416 133.337 160.518 132.945 160.052 132.167C159.278 130.873 160.052 129.224 159.972 127.713C159.881 125.577 158.096 123.829 157.583 121.808Z" fill="black"/>
<path d="M157.741 121.646C154.543 120.442 151.991 117.941 150.705 114.751C151.59 114.413 152.518 115.238 153.459 115.174C154.598 115.096 155.245 113.822 156.22 113.24C157.489 112.463 159.158 112.903 160.441 113.666C161.724 114.43 162.873 115.454 164.29 115.907C165.503 116.296 166.806 116.218 168.079 116.292C169.694 116.384 173.024 116.674 174.234 117.918C174.904 118.594 174.602 119.27 173.992 119.838C174.157 120.788 173.825 121.663 173.932 122.785C174.089 123.756 173.959 124.752 173.557 125.648C173.098 126.908 172.451 127.899 171.825 129.085C171.409 129.876 171.647 130.913 171.155 131.66C170.891 132.009 170.546 132.287 170.15 132.468C167.788 133.742 165.038 134.076 162.444 133.404C161.573 133.175 160.675 132.783 160.21 132.005C159.436 130.711 160.21 129.061 160.129 127.551C160.042 125.418 158.256 123.667 157.741 121.646Z" fill="#141327"/>
<path opacity="0.1" d="M159.422 132.903L158.256 133.317L158.203 132.755C158.203 132.755 158.143 133.065 159.422 132.903Z" fill="black"/>
</svg>
